<?xml version="1.0" standalone="no"?>
<!DOCTYPE svg PUBLIC "-//W3C//DTD SVG 20010904//EN"
 "http://www.w3.org/TR/2001/REC-SVG-20010904/DTD/svg10.dtd">
<svg version="1.0" xmlns="http://www.w3.org/2000/svg"
 width="105.000000pt" height="103.000000pt" viewBox="0 0 105.000000 103.000000"
 preserveAspectRatio="xMidYMid meet">

<g transform="translate(0.000000,103.000000) scale(0.100000,-0.100000)"
fill="#000000" stroke="none">
<path d="M445 927 c-24 -19 -12 -36 21 -29 29 5 28 9 8 -58 -5 -16 -2 -20 15
-20 14 0 21 6 21 19 0 11 5 23 10 26 14 9 13 48 -2 63 -16 16 -50 15 -73 -1z"/>
<path d="M560 921 c0 -5 5 -11 12 -13 8 -3 6 -12 -6 -29 -15 -24 -13 -39 6
-39 4 0 8 5 8 12 0 6 7 19 16 29 9 10 14 25 11 34 -7 16 -47 21 -47 6z"/>
<path d="M390 849 c-9 -5 -10 -9 -3 -9 6 0 16 -12 21 -27 l10 -28 1 32 c1 36
-8 46 -29 32z"/>
<path d="M617 844 c-3 -3 1 -17 10 -30 11 -18 14 -38 10 -73 -4 -36 -1 -54 11
-72 10 -15 12 -24 4 -27 -6 -2 -16 -28 -23 -59 -12 -53 -14 -55 -41 -49 -38 8
-56 -1 -74 -36 l-15 -30 -46 46 c-25 25 -48 46 -53 46 -4 0 -10 16 -13 34 -3
19 -17 52 -31 73 -29 43 -34 98 -11 129 17 22 19 44 5 44 -6 0 -20 -21 -30
-46 -23 -53 -20 -77 22 -152 21 -37 28 -60 24 -77 -5 -18 -2 -25 8 -25 21 0
81 -54 107 -96 l21 -35 24 50 c20 45 27 51 54 51 50 0 67 15 74 65 4 25 12 45
18 45 6 0 8 12 4 33 -4 17 -8 60 -10 95 -2 47 -7 68 -22 83 -11 11 -23 17 -27
13z"/>
<path d="M484 795 c-4 -9 -2 -21 3 -26 14 -14 45 1 41 20 -4 22 -37 26 -44 6z"/>
<path d="M200 280 c0 -39 2 -41 26 -38 57 7 57 69 0 76 -24 3 -26 1 -26 -38z
m48 3 c-2 -17 -10 -29 -20 -31 -14 -3 -18 3 -18 27 0 25 4 31 21 31 16 0 20
-5 17 -27z"/>
<path d="M290 284 c-7 -19 -9 -38 -6 -41 3 -4 6 -1 6 5 0 7 9 12 20 12 11 0
20 -4 20 -10 0 -5 4 -10 9 -10 5 0 2 18 -6 40 -9 22 -20 40 -24 40 -4 0 -13
-16 -19 -36z m30 -4 c0 -5 -5 -10 -11 -10 -5 0 -7 5 -4 10 3 6 8 10 11 10 2 0
4 -4 4 -10z"/>
<path d="M358 303 c7 -12 12 -31 12 -43 0 -12 4 -18 10 -15 6 4 8 11 4 16 -3
6 2 19 12 30 9 10 14 22 10 26 -4 4 -11 1 -16 -7 -7 -12 -11 -12 -26 1 -16 13
-16 12 -6 -8z"/>
<path d="M458 313 c6 -2 12 -20 12 -39 0 -19 5 -34 10 -34 6 0 10 15 10 34 0
19 6 37 13 39 6 3 -4 5 -23 5 -19 0 -29 -2 -22 -5z"/>
<path d="M521 298 c-12 -31 4 -58 33 -58 30 0 48 22 44 52 -2 18 -10 24 -36
26 -26 3 -34 -1 -41 -20z m64 2 c11 -17 -6 -50 -25 -50 -19 0 -36 33 -25 50 3
5 15 10 25 10 10 0 22 -5 25 -10z"/>
<path d="M660 280 c0 -39 2 -41 26 -38 57 7 57 69 0 76 -24 3 -26 1 -26 -38z
m48 3 c-2 -17 -10 -29 -20 -31 -14 -3 -18 3 -18 27 0 25 4 31 21 31 16 0 20
-5 17 -27z"/>
<path d="M748 280 c-9 -22 -12 -40 -7 -40 5 0 9 5 9 10 0 6 9 10 20 10 11 0
20 -4 20 -10 0 -5 4 -10 9 -10 5 0 2 18 -6 40 -9 22 -19 40 -22 40 -3 0 -14
-18 -23 -40z m32 0 c0 -5 -4 -10 -10 -10 -5 0 -10 5 -10 10 0 6 5 10 10 10 6
0 10 -4 10 -10z"/>
<path d="M820 301 c5 -11 10 -29 10 -40 0 -12 5 -21 10 -21 6 0 10 11 10 24 0
14 5 28 10 31 6 3 10 11 10 17 0 6 -7 5 -17 -3 -13 -11 -17 -11 -20 -1 -3 6
-9 12 -14 12 -6 0 -6 -8 1 -19z"/>
<path d="M428 273 c7 -3 16 -2 19 1 4 3 -2 6 -13 5 -11 0 -14 -3 -6 -6z"/>
<path d="M628 273 c7 -3 16 -2 19 1 4 3 -2 6 -13 5 -11 0 -14 -3 -6 -6z"/>
<path d="M71 133 c0 -27 3 -41 6 -33 4 8 13 20 22 27 14 11 14 12 -1 13 -22 0
-24 20 -3 20 8 0 15 5 15 10 0 6 -9 10 -20 10 -17 0 -20 -6 -19 -47z"/>
<path d="M221 133 c1 -27 3 -40 6 -30 6 21 19 22 27 2 3 -8 11 -15 17 -15 8 0
8 4 -1 15 -7 8 -9 22 -6 31 7 19 -10 44 -30 44 -10 0 -14 -13 -13 -47z"/>
<path d="M301 164 c-38 -27 -21 -74 26 -74 13 0 26 7 30 16 7 18 -15 36 -31
27 -6 -4 -5 -8 2 -11 7 -2 12 -8 12 -13 0 -14 -26 -10 -40 6 -16 19 1 42 33
47 18 3 19 4 6 10 -9 3 -26 0 -38 -8z"/>
<path d="M375 172 c-3 -3 -5 -23 -5 -44 0 -35 2 -38 28 -37 23 2 24 2 5 6 -28
5 -29 12 -5 29 16 13 16 13 0 14 -34 0 -18 20 16 20 33 0 35 -2 39 -37 l4 -38
1 38 c2 46 32 54 32 8 0 -17 5 -33 10 -36 6 -3 10 0 10 9 0 8 6 17 13 20 10 5
10 7 0 12 -19 8 -16 24 4 24 13 0 14 3 5 12 -8 8 -15 8 -26 -1 -9 -8 -16 -8
-20 -2 -6 10 -102 12 -111 3z"/>
<path d="M810 148 c-1 -27 -2 -30 -11 -16 -5 10 -19 22 -29 28 -19 10 -20 7
-18 -32 1 -41 1 -41 5 -8 l5 35 28 -34 28 -35 4 43 c2 23 0 45 -4 47 -4 3 -8
-10 -8 -28z"/>
<path d="M847 173 c-4 -3 -7 -24 -7 -45 0 -35 2 -38 28 -37 l27 0 -25 10 c-23
10 -24 11 -6 21 15 8 16 12 5 20 -11 7 -11 11 -1 15 6 2 12 9 12 14 0 10 -23
12 -33 2z"/>
<path d="M963 164 c-3 -8 2 -23 11 -33 20 -22 20 -28 -1 -34 -14 -4 -13 -5 4
-6 12 0 24 3 27 8 9 14 -4 41 -20 41 -20 0 -17 18 4 22 16 3 16 4 -1 11 -12 4
-20 1 -24 -9z"/>
<path d="M133 163 c-19 -7 -16 -60 3 -67 29 -11 53 -6 64 14 21 40 -20 73 -67
53z m55 -31 c4 -28 -24 -41 -44 -20 -20 20 -7 50 20 46 13 -2 22 -12 24 -26z"/>
<path d="M551 137 c-1 -41 19 -58 48 -40 18 11 28 73 12 73 -5 0 -11 -15 -13
-32 -4 -46 -31 -44 -39 2 l-6 35 -2 -38z"/>
<path d="M630 130 c0 -37 2 -40 28 -39 16 1 20 3 10 6 -13 3 -18 15 -18 39 0
19 -4 34 -10 34 -5 0 -10 -18 -10 -40z"/>
<path d="M692 133 c3 -32 7 -38 28 -40 14 -1 18 0 8 3 -13 4 -18 16 -18 40 0
19 -5 34 -11 34 -6 0 -9 -16 -7 -37z"/>
<path d="M900 156 c0 -7 7 -19 15 -26 20 -16 19 -27 -2 -33 -17 -4 -17 -5 0
-6 25 -1 32 26 12 48 -16 18 -15 20 2 24 14 4 14 5 -4 6 -14 1 -23 -5 -23 -13z"/>
</g>
</svg>
